<svg width="345" height="331" viewBox="0 0 345 331" fill="none" xmlns="http://www.w3.org/2000/svg">
<path fill-rule="evenodd" clip-rule="evenodd" d="M43.125 330.618C31.6875 330.618 20.7185 326.074 12.631 317.987C4.54351 309.899 0 298.93 0 287.493L0 114.993C0 103.555 4.54351 92.5865 12.631 84.4989C20.7185 76.4114 31.6875 71.8679 43.125 71.8679H97.0312C100.379 71.8679 103.68 71.0886 106.674 69.5915C109.668 68.0945 112.273 65.9209 114.281 63.2429L155.25 8.62512C157.258 5.94714 159.863 3.77356 162.857 2.27652C165.851 0.77948 169.153 9.15527e-05 172.5 9.15527e-05C175.847 9.15527e-05 179.149 0.77948 182.143 2.27652C185.137 3.77356 187.742 5.94714 189.75 8.62512L230.719 63.2429C232.727 65.9209 235.332 68.0945 238.326 69.5915C241.32 71.0886 244.621 71.8679 247.969 71.8679H301.875C313.312 71.8679 324.281 76.4114 332.369 84.4989C340.456 92.5865 345 103.555 345 114.993V287.493C345 298.93 340.456 309.899 332.369 317.987C324.281 326.074 313.312 330.618 301.875 330.618H43.125Z" fill="#3F598C"/>
</svg>
