<svg width="165" height="165" viewBox="0 0 165 165" fill="none" xmlns="http://www.w3.org/2000/svg">
<path d="M82.5 65.45C79.1278 65.45 75.8314 66.45 73.0275 68.3234C70.2237 70.1969 68.0383 72.8598 66.7479 75.9753C65.4574 79.0907 65.1197 82.5189 65.7776 85.8263C66.4355 89.1337 68.0593 92.1717 70.4438 94.5562C72.8283 96.9407 75.8663 98.5645 79.1737 99.2224C82.4811 99.8803 85.9093 99.5426 89.0247 98.2522C92.1402 96.9617 94.8031 94.7763 96.6766 91.9725C98.55 89.1686 99.55 85.8722 99.55 82.5C99.55 80.261 99.109 78.0439 98.2522 75.9753C97.3953 73.9066 96.1394 72.0271 94.5562 70.4438C92.9729 68.8606 91.0934 67.6047 89.0247 66.7479C86.9561 65.891 84.739 65.45 82.5 65.45ZM150.769 48.6063C150.733 43.2971 149.755 38.0364 147.881 33.0688C146.501 29.4337 144.366 26.1325 141.617 23.3831C138.867 20.6338 135.566 18.4987 131.931 17.1188C126.964 15.2451 121.703 14.2674 116.394 14.2312C107.525 13.75 104.912 13.75 82.5 13.75C60.0875 13.75 57.475 13.75 48.6063 14.2312C43.2971 14.2674 38.0364 15.2451 33.0688 17.1188C29.4337 18.4987 26.1325 20.6338 23.3831 23.3831C20.6338 26.1325 18.4987 29.4337 17.1188 33.0688C15.2451 38.0364 14.2674 43.2971 14.2312 48.6063C13.75 57.475 13.75 60.0875 13.75 82.5C13.75 104.912 13.75 107.525 14.2312 116.394C14.3053 121.722 15.2816 126.998 17.1188 132C18.4926 135.618 20.6259 138.9 23.375 141.625C26.1126 144.391 29.4208 146.526 33.0688 147.881C38.0364 149.755 43.2971 150.733 48.6063 150.769C57.475 151.25 60.0875 151.25 82.5 151.25C104.912 151.25 107.525 151.25 116.394 150.769C121.703 150.733 126.964 149.755 131.931 147.881C135.579 146.526 138.887 144.391 141.625 141.625C144.374 138.9 146.507 135.618 147.881 132C149.753 127.008 150.731 121.725 150.769 116.394C151.25 107.525 151.25 104.912 151.25 82.5C151.25 60.0875 151.25 57.475 150.769 48.6063ZM133.306 103.606C133.086 107.849 132.18 112.028 130.625 115.981C129.29 119.279 127.306 122.275 124.791 124.791C122.275 127.306 119.279 129.29 115.981 130.625C111.99 132.093 107.788 132.906 103.538 133.031H61.4625C57.2119 132.906 53.0096 132.093 49.0187 130.625C45.6095 129.358 42.5307 127.337 40.0125 124.712C37.5215 122.246 35.5977 119.267 34.375 115.981C32.9007 111.995 32.1104 107.787 32.0375 103.538V82.5V61.4625C32.1104 57.2126 32.9007 53.0055 34.375 49.0187C35.6419 45.6095 37.6631 42.5307 40.2875 40.0125C42.7648 37.5349 45.7412 35.6131 49.0187 34.375C53.0096 32.9065 57.2119 32.0939 61.4625 31.9688H103.538C107.788 32.0939 111.99 32.9065 115.981 34.375C119.391 35.6419 122.469 37.6631 124.988 40.2875C127.479 42.7539 129.402 45.7334 130.625 49.0187C132.093 53.0096 132.906 57.2119 133.031 61.4625V82.5C133.031 96.6625 133.512 98.1063 133.306 103.538V103.606ZM122.306 52.4562C121.488 50.2355 120.197 48.2188 118.524 46.5452C116.85 44.8716 114.833 43.5811 112.612 42.7625C109.563 41.7055 106.352 41.1936 103.125 41.25H61.875C58.6318 41.2817 55.4198 41.8869 52.3875 43.0375C50.2008 43.8189 48.2054 45.0568 46.534 46.6689C44.8626 48.281 43.5535 50.2304 42.6938 52.3875C41.6953 55.4494 41.2076 58.6547 41.25 61.875V103.125C41.3182 106.364 41.9222 109.57 43.0375 112.612C43.8561 114.833 45.1466 116.85 46.8202 118.524C48.4938 120.197 50.5105 121.488 52.7313 122.306C55.6646 123.385 58.7514 123.988 61.875 124.094H103.125C106.368 124.062 109.58 123.457 112.612 122.306C114.833 121.488 116.85 120.197 118.524 118.524C120.197 116.85 121.488 114.833 122.306 112.612C123.457 109.58 124.062 106.368 124.094 103.125V82.5V61.875C124.096 58.6286 123.489 55.4106 122.306 52.3875V52.4562ZM82.5 108.762C79.0544 108.763 75.6426 108.083 72.4602 106.762C69.2777 105.441 66.3871 103.506 63.9539 101.066C61.5207 98.6266 59.5927 95.7309 58.2804 92.545C56.9681 89.3591 56.2972 85.9456 56.3062 82.5C56.3063 77.3028 57.8483 72.2225 60.7371 67.9022C63.6259 63.5819 67.7316 60.2158 72.5345 58.2301C77.3373 56.2444 82.6214 55.7283 87.7176 56.7473C92.8139 57.7662 97.4933 60.2743 101.163 63.954C104.834 67.6338 107.329 72.3198 108.335 77.4187C109.341 82.5177 108.811 87.8003 106.812 92.598C104.814 97.3956 101.437 101.492 97.1094 104.37C92.7815 107.247 87.6971 108.776 82.5 108.762ZM110 61.3938C108.48 61.2329 107.074 60.5153 106.052 59.3792C105.029 58.2431 104.464 56.7689 104.464 55.2406C104.464 53.7124 105.029 52.2382 106.052 51.1021C107.074 49.966 108.48 49.2484 110 49.0875C111.52 49.2484 112.926 49.966 113.948 51.1021C114.971 52.2382 115.536 53.7124 115.536 55.2406C115.536 56.7689 114.971 58.2431 113.948 59.3792C112.926 60.5153 111.52 61.2329 110 61.3938Z" fill="url(#paint0_linear)"/>
<defs>
<linearGradient id="paint0_linear" x1="151" y1="151" x2="41" y2="24.5" gradientUnits="userSpaceOnUse">
<stop stop-color="#FEDA77"/>
<stop offset="0.265625" stop-color="#F58529"/>
<stop offset="0.473958" stop-color="#DD2A7B"/>
<stop offset="0.859375" stop-color="#8134AF"/>
<stop offset="1" stop-color="#515BD4"/>
</linearGradient>
</defs>
</svg>
