<svg width="240" height="240" viewBox="0 0 240 240" fill="none" xmlns="http://www.w3.org/2000/svg">
<path opacity="0.3" d="M50.8 80.0004H80.3C83.5 67.5004 88.1 55.5004 94.1 44.4004C75.7 50.7004 60.4 63.4004 50.8 80.0004ZM75 120C75 113.2 75.6 106.6 76.4 100H42.6C41 106.4 40 113.1 40 120C40 126.9 41 133.6 42.6 140H76.4C75.6 133.4 75 126.8 75 120ZM50.8 160C60.4583 176.709 75.8397 189.355 94.1 195.6C88.0643 184.341 83.4298 172.386 80.3 160H50.8ZM120 40.4004C111.7 52.4004 105.2 65.7004 100.9 80.0004H139.1C134.8 65.7004 128.3 52.4004 120 40.4004ZM189.2 80.0004C179.512 63.3176 164.141 50.6804 145.9 44.4004C151.9 55.5004 156.5 67.5004 159.7 80.0004H189.2ZM120 199.6C128.3 187.6 134.8 174.3 139.1 160H100.9C105.2 174.3 111.7 187.6 120 199.6ZM145.9 195.6C164.141 189.32 179.512 176.683 189.2 160H159.7C156.57 172.386 151.936 184.341 145.9 195.6V195.6ZM197.4 100H163.6C164.4 106.6 165 113.2 165 120C165 126.8 164.4 133.4 163.6 140H197.4C199 133.6 200 126.9 200 120C200 113.1 199 106.4 197.4 100ZM96.6 100C95.7 106.5 95 113.2 95 120C95 126.8 95.7 133.4 96.6 140H143.4C144.3 133.4 145 126.8 145 120C145 113.2 144.3 106.5 143.4 100H96.6Z" fill="black"/>
<path d="M119.9 20C64.7 20 20 64.8 20 120C20 175.2 64.7 220 119.9 220C175.2 220 220 175.2 220 120C220 64.8 175.2 20 119.9 20ZM189.2 80H159.7C156.57 67.6146 151.936 55.659 145.9 44.4C164.141 50.68 179.512 63.3172 189.2 80ZM120 40.4C128.3 52.4 134.8 65.7 139.1 80H100.9C105.2 65.7 111.7 52.4 120 40.4ZM42.6 140C41 133.6 40 126.9 40 120C40 113.1 41 106.4 42.6 100H76.4C75.6 106.6 75 113.2 75 120C75 126.8 75.6 133.4 76.4 140H42.6ZM50.8 160H80.3C83.5 172.5 88.1 184.5 94.1 195.6C75.8397 189.354 60.4583 176.708 50.8 160V160ZM80.3 80H50.8C60.4583 63.2918 75.8397 50.6457 94.1 44.4C88.0643 55.659 83.4298 67.6146 80.3 80V80ZM120 199.6C111.7 187.6 105.2 174.3 100.9 160H139.1C134.8 174.3 128.3 187.6 120 199.6ZM143.4 140H96.6C95.7 133.4 95 126.8 95 120C95 113.2 95.7 106.5 96.6 100H143.4C144.3 106.5 145 113.2 145 120C145 126.8 144.3 133.4 143.4 140ZM145.9 195.6C151.9 184.5 156.5 172.5 159.7 160H189.2C179.512 176.683 164.141 189.32 145.9 195.6V195.6ZM163.6 140C164.4 133.4 165 126.8 165 120C165 113.2 164.4 106.6 163.6 100H197.4C199 106.4 200 113.1 200 120C200 126.9 199 133.6 197.4 140H163.6Z" fill="black"/>
</svg>
