<svg width="165" height="165" viewBox="0 0 165 165" fill="none" xmlns="http://www.w3.org/2000/svg">
<g clip-path="url(#clip0)">
<path d="M155.893 165.001C160.922 165.001 165 160.923 165 155.894V9.10658C165 4.07666 160.922 0 155.893 0H9.10658C4.07602 0 0 4.07666 0 9.10658V155.894C0 160.923 4.07602 165.001 9.10658 165.001H155.893Z" fill="#395185"/>
<path d="M113.847 165.001V101.104H135.295L138.506 76.2024H113.847V60.3031C113.847 53.0934 115.849 48.1801 126.188 48.1801L139.375 48.1743V25.9025C137.093 25.5989 129.266 24.9209 120.16 24.9209C101.148 24.9209 88.1319 36.5257 88.1319 57.8377V76.2024H66.629V101.104H88.1319V165.001H113.847Z" fill="white"/>
</g>
<!-- <defs>
<clipPath id="clip0">
<rect width="165" height="165" fill="white"/>
</clipPath>
</defs> -->
</svg>
