<svg width="169" height="191" viewBox="0 0 169 191" fill="none" xmlns="http://www.w3.org/2000/svg">
<g clip-path="url(#clip0)">
<path d="M168.991 56.8171C168.989 53.6052 168.306 50.7674 166.925 48.3322C165.568 45.9367 163.536 43.9299 160.811 42.3422C138.312 29.2972 115.792 16.2919 93.3012 3.23363C87.2377 -0.285942 81.3584 -0.157946 75.3398 3.41269C66.3849 8.72355 21.5502 34.5536 8.19013 42.3349C2.68844 45.5381 0.0108788 50.4398 0.0095585 56.8111C0.000976562 83.0458 0.0095585 109.279 0.000976562 135.514C0.00229686 138.655 0.656505 141.438 1.9768 143.837C3.33407 146.305 5.39439 148.367 8.18286 149.991C21.5436 157.772 66.3842 183.6 75.3372 188.912C81.3584 192.485 87.2377 192.612 93.3031 189.091C115.794 176.032 138.316 163.028 160.818 149.983C163.606 148.36 165.667 146.296 167.024 143.831C168.342 141.431 168.998 138.649 168.999 135.507C168.999 135.507 168.999 83.0524 168.991 56.8171Z" fill="#A9B9CB"/>
<path d="M93.1487 3.40474C87.0951 -0.106216 81.2257 0.0217805 75.217 3.58313C66.2766 8.88007 21.5152 34.6432 8.17692 42.4045C2.68382 45.5992 0.0108788 50.4882 0.0095585 56.843C0.000976562 83.0093 0.0095585 109.175 0.000976562 135.342C0.00229686 138.475 0.655184 141.25 1.9735 143.643C3.32879 146.104 5.38581 148.162 8.16966 149.78C12.6023 152.355 17.0383 154.924 21.4776 157.487L144.986 33.4083C127.705 23.4113 110.419 13.4223 93.1487 3.40474Z" fill="#7F8B99"/>
<path d="M101.965 84.2045L128.265 84.3908C128.265 73.3824 117.173 46.4236 85.3728 46.4236C65.1121 46.4236 37.8744 59.3638 37.8744 96.5677C37.8744 133.771 64.5754 145.903 85.3728 145.903C119.052 145.903 127.101 122.491 127.101 109.26L102.01 107.819C102.01 107.819 102.682 123.122 85.2388 123.122C69.1377 123.122 66.4509 103.307 66.4509 96.5677C66.4509 86.3234 70.0771 69.8781 85.2388 69.8781C100.401 69.8781 101.965 84.2045 101.965 84.2045Z" fill="white"/>
</g>
<!-- <defs>
<clipPath id="clip0">
<rect width="169" height="191" fill="white"/>
</clipPath>
</defs> -->
</svg>
