<svg width="203" height="165" viewBox="0 0 203 165" fill="none" xmlns="http://www.w3.org/2000/svg">
<g clip-path="url(#clip0)">
<path d="M202.039 20.0921C194.605 23.3897 186.617 25.6184 178.232 26.621C186.791 21.4895 193.363 13.3634 196.457 3.68129C188.321 8.51118 179.419 11.9141 170.136 13.7431C162.575 5.68498 151.803 0.648926 139.88 0.648926C116.988 0.648926 98.4286 19.2142 98.4286 42.1121C98.4286 45.3624 98.7956 48.5266 99.5019 51.5621C65.0529 49.8323 34.5105 33.3252 14.066 8.23893C10.4987 14.3629 8.4547 21.4863 8.4547 29.0842C8.4547 43.47 15.773 56.1608 26.8946 63.5968C20.3122 63.3906 13.8746 61.6122 8.11928 58.41C8.11691 58.5837 8.11691 58.7574 8.11691 58.9318C8.11691 79.0216 22.4048 95.7805 41.3663 99.5897C35.2625 101.25 28.86 101.493 22.6479 100.3C27.9221 116.773 43.2305 128.761 61.3681 129.096C47.182 140.217 29.3088 146.846 9.88948 146.846C6.54323 146.846 3.24433 146.649 0.00146484 146.267C18.3451 158.031 40.1328 164.896 63.5408 164.896C139.784 164.896 181.476 101.713 181.476 46.9208C181.476 45.1223 181.436 43.3342 181.356 41.5563C189.471 35.688 196.475 28.4196 202.039 20.0921Z" fill="#55ACEE"/>
</g>
<!-- <defs>
<clipPath id="clip0">
<rect width="202.041" height="165" fill="white"/>
</clipPath>
</defs> -->
</svg>
