<svg width="138" height="138" viewBox="0 0 138 138" fill="none" xmlns="http://www.w3.org/2000/svg">
<path d="M69.0303 33.961C49.7232 33.961 34.1499 49.5915 34.1499 68.9696C34.1499 88.3478 49.7232 103.978 69.0303 103.978C88.3374 103.978 103.911 88.3478 103.911 68.9696C103.911 49.5915 88.3374 33.961 69.0303 33.961ZM69.0303 91.7298C56.5535 91.7298 46.3535 81.5228 46.3535 68.9696C46.3535 56.4165 56.5232 46.2095 69.0303 46.2095C81.5374 46.2095 91.7071 56.4165 91.7071 68.9696C91.7071 81.5228 81.5071 91.7298 69.0303 91.7298ZM113.473 32.529C113.473 37.0688 109.83 40.6946 105.337 40.6946C100.814 40.6946 97.2017 37.0384 97.2017 32.529C97.2017 28.0196 100.845 24.3634 105.337 24.3634C109.83 24.3634 113.473 28.0196 113.473 32.529ZM136.575 40.8165C136.059 29.8782 133.57 20.1892 125.586 12.2063C117.632 4.22353 107.979 1.7251 97.0803 1.17666C85.8482 0.536816 52.1821 0.536816 40.9499 1.17666C30.0821 1.69463 20.4285 4.19307 12.4446 12.1759C4.46066 20.1587 2.00173 29.8478 1.4553 40.786C0.817798 52.0595 0.817798 85.8493 1.4553 97.1227C1.97137 108.061 4.46066 117.75 12.4446 125.733C20.4285 133.716 30.0517 136.214 40.9499 136.763C52.1821 137.402 85.8482 137.402 97.0803 136.763C107.979 136.245 117.632 133.746 125.586 125.733C133.539 117.75 136.029 108.061 136.575 97.1227C137.212 85.8493 137.212 52.0899 136.575 40.8165ZM122.064 109.219C119.696 115.191 115.112 119.792 109.132 122.199C100.177 125.763 78.9267 124.941 69.0303 124.941C59.1339 124.941 37.8535 125.733 28.9285 122.199C22.9785 119.822 18.3946 115.221 15.9964 109.219C12.4446 100.231 13.2642 78.9024 13.2642 68.9696C13.2642 59.0368 12.4749 37.6782 15.9964 28.7204C18.3642 22.7485 22.9482 18.1478 28.9285 15.7407C37.8839 12.1759 59.1339 12.9985 69.0303 12.9985C78.9267 12.9985 100.207 12.2063 109.132 15.7407C115.082 18.1173 119.666 22.7181 122.064 28.7204C125.616 37.7087 124.796 59.0368 124.796 68.9696C124.796 78.9024 125.616 100.261 122.064 109.219Z" fill="#DD2A7B"/>
</svg>
