<svg width="209" height="209" viewBox="0 0 209 209" fill="none" xmlns="http://www.w3.org/2000/svg">
<path d="M13.0625 13.0625H195.938V195.938H13.0625V13.0625Z" fill="#F5DE19"/>
<path d="M135.909 155.934C137.467 159.099 139.888 161.759 142.892 163.608C145.897 165.457 149.362 166.419 152.89 166.384C160.009 166.384 164.561 162.824 164.561 157.893C164.561 152.015 159.885 149.912 152.047 146.483L147.75 144.641C135.341 139.357 127.111 132.741 127.111 118.751C127.111 105.865 136.908 96.0486 152.276 96.0486C157.251 95.6894 162.222 96.8028 166.568 99.25C170.914 101.697 174.443 105.37 176.716 109.81L163.281 118.399C162.406 116.197 160.883 114.314 158.912 112.998C156.942 111.682 154.619 110.996 152.25 111.031C151.216 110.928 150.173 111.041 149.185 111.363C148.198 111.685 147.288 112.21 146.515 112.903C145.741 113.596 145.12 114.442 144.692 115.389C144.264 116.335 144.037 117.36 144.027 118.399C144.027 123.552 147.221 125.642 154.595 128.849L158.892 130.69C173.496 136.954 181.752 143.335 181.752 157.684C181.752 173.157 169.597 181.634 153.275 181.634C146.916 182.039 140.575 180.596 135.018 177.477C129.461 174.358 124.925 169.698 121.958 164.059L135.909 155.934ZM75.2008 157.423C77.8982 162.21 80.354 166.26 86.2582 166.26C91.9012 166.26 95.4673 164.052 95.4673 155.463V97.0283H112.651V155.692C112.651 173.483 102.201 181.582 86.9897 181.582C81.6129 181.876 76.2729 180.536 71.6719 177.738C67.0708 174.94 63.424 170.816 61.2109 165.907L75.2008 157.423Z" fill="black"/>
</svg>
