<svg width="167" height="187" viewBox="0 0 167 187" fill="none" xmlns="http://www.w3.org/2000/svg">
<path d="M166.718 55.0102C166.717 51.8741 166.043 49.1028 164.68 46.7244C163.341 44.3856 161.337 42.4254 158.648 40.8755C136.452 28.1367 114.235 15.437 92.0463 2.68526C86.0644 -0.75216 80.2645 -0.626844 74.3269 2.85993C65.4923 8.04593 21.2606 33.2695 8.08017 40.8683C2.65207 43.996 0.0107616 48.7827 0.00945694 55.0044C0.000976562 80.6227 0.00945694 106.24 0.000976562 131.859C0.00228124 134.927 0.647442 137.644 1.95016 139.987C3.28941 142.396 5.32209 144.41 8.07299 145.995C21.2541 153.594 65.4917 178.816 74.3243 184.003C80.2645 187.492 86.0644 187.617 92.0483 184.178C114.238 171.426 136.456 158.726 158.655 145.988C161.406 144.403 163.439 142.388 164.778 139.98C166.079 137.638 166.725 134.92 166.726 131.852C166.726 131.852 166.726 80.6292 166.718 55.0102Z" fill="#5C8DBC"/>
<path d="M83.6187 93.1812L1.95007 139.986C3.28932 142.395 5.322 144.409 8.07291 145.994C21.254 153.593 65.4916 178.815 74.3242 184.002C80.2644 187.491 86.0643 187.616 92.0482 184.177C114.237 171.424 136.456 158.725 158.655 145.987C161.406 144.402 163.439 142.387 164.778 139.979L83.6187 93.1812Z" fill="#1A4674"/>
<path d="M59.4294 107.045C64.1817 115.303 73.1155 120.873 83.3637 120.873C93.6752 120.873 102.66 115.232 107.388 106.886L83.6187 93.1812L59.4294 107.045Z" fill="#1A4674"/>
<path d="M166.718 55.0092C166.717 51.873 166.043 49.1018 164.68 46.7234L83.6187 93.1812L164.778 139.979C166.079 137.637 166.725 134.919 166.726 131.851C166.726 131.851 166.726 80.6282 166.718 55.0092Z" fill="#1B598E"/>
<path d="M162.255 96.5263H155.913V102.84H149.57V96.5263H143.229V90.2144H149.57V83.9019H155.913V90.2144H162.255V96.5263Z" fill="white"/>
<path d="M139.114 96.5263H132.772V102.84H126.43V96.5263H120.088V90.2144H126.43V83.9019H132.772V90.2144H139.114V96.5263Z" fill="white"/>
<path d="M107.388 106.886C102.66 115.232 93.6751 120.873 83.3637 120.873C73.1154 120.873 64.1817 115.303 59.4294 107.045C57.0421 102.901 55.7883 98.2071 55.7933 93.4304C55.7933 78.275 68.1375 65.9888 83.3637 65.9888C93.546 65.9888 102.433 71.4891 107.209 79.6626L131.306 65.8505C121.728 49.3932 103.846 38.3213 83.3637 38.3213C52.7847 38.3213 27.9966 62.9949 27.9966 93.4304C27.9966 103.415 30.6653 112.779 35.3295 120.856C44.8836 137.4 62.817 148.54 83.3637 148.54C103.948 148.54 121.91 137.355 131.45 120.762L107.388 106.886Z" fill="white"/>
</svg>
