<svg width="140" height="189" viewBox="0 0 140 189" fill="none" xmlns="http://www.w3.org/2000/svg">
<path d="M45.1476 146.105C45.1476 146.105 37.9302 150.298 50.2842 151.716C65.251 153.422 72.8999 153.177 89.3935 150.059C89.3935 150.059 93.7301 152.775 99.7854 155.128C62.8121 170.956 16.1064 154.21 45.1476 146.105Z" fill="#5382A1"/>
<path d="M40.6297 125.45C40.6297 125.45 32.5346 131.435 44.8979 132.713C60.8857 134.36 73.5114 134.495 95.3593 130.293C95.3593 130.293 98.3813 133.353 103.133 135.026C58.4292 148.084 8.63763 136.056 40.6297 125.45Z" fill="#5382A1"/>
<path d="M78.718 90.4114C87.8286 100.888 76.3244 110.317 76.3244 110.317C76.3244 110.317 99.4569 98.3882 88.8332 83.4507C78.911 69.5215 71.3016 62.5995 112.494 38.7363C112.494 38.7363 47.8355 54.8669 78.718 90.4109" fill="#E76F00"/>
<path d="M127.619 161.383C127.619 161.383 132.96 165.779 121.736 169.18C100.395 175.638 32.9097 177.588 14.1625 169.437C7.4236 166.509 20.0614 162.445 24.0365 161.592C28.1822 160.694 30.5517 160.861 30.5517 160.861C23.0571 155.587 -17.8903 171.217 9.75265 175.692C85.1381 187.904 147.173 170.193 127.619 161.383Z" fill="#5382A1"/>
<path d="M48.618 104.048C48.618 104.048 14.2914 112.193 36.4625 115.15C45.8235 116.402 64.4849 116.119 81.8678 114.663C96.0739 113.467 110.339 110.922 110.339 110.922C110.339 110.922 105.329 113.065 101.705 115.536C66.8468 124.694 -0.49388 120.434 18.8926 111.066C35.2879 103.15 48.6185 104.048 48.6185 104.048" fill="#5382A1"/>
<path d="M110.197 138.43C145.633 120.037 129.249 102.361 117.813 104.743C115.01 105.325 113.76 105.83 113.76 105.83C113.76 105.83 114.801 104.202 116.788 103.498C139.412 95.5525 156.811 126.93 109.485 139.357C109.485 139.357 110.034 138.868 110.197 138.43Z" fill="#5382A1"/>
<path d="M88.833 0.202695C88.833 0.202695 108.458 19.8128 70.2197 49.966C39.5571 74.1547 63.2277 87.9462 70.2072 103.704C52.3086 87.5731 39.1732 73.373 47.9858 60.1572C60.9194 40.7563 96.7509 31.3505 88.833 0.202148" fill="#E76F00"/>
<path d="M52.1005 188.271C86.1143 190.446 138.346 187.064 139.583 170.988C139.583 170.988 137.205 177.083 111.472 181.922C82.4411 187.379 46.6353 186.742 25.3982 183.245C25.3987 183.245 29.7457 186.839 52.1011 188.271" fill="#5382A1"/>
</svg>
