<svg width="186" height="187" viewBox="0 0 186 187" fill="none" xmlns="http://www.w3.org/2000/svg">
<path d="M186 147.748H0C1.8449 130.916 7.7229 114.778 17.1353 100.702C24.3692 89.5276 34.0738 80.165 45.5003 73.3365L48.6797 71.5811L33.0266 45.1517C32.478 44.2556 32.3069 43.1786 32.551 42.1566C32.795 41.1346 33.4343 40.2511 34.3286 39.6996C34.772 39.4388 35.2624 39.2679 35.7718 39.1969C36.2813 39.1259 36.7997 39.156 37.2975 39.2856C37.7953 39.4152 38.2626 39.6416 38.6728 39.952C39.0829 40.2624 39.4278 40.6507 39.6878 41.0946L55.7942 68.2215C67.7213 63.4701 80.4645 61.1044 93.3023 61.2581C105.927 61.107 118.43 63.4669 130.113 68.2215L146.155 41.0946C146.42 40.6476 146.772 40.2582 147.19 39.9497C147.608 39.6411 148.083 39.4195 148.589 39.2981C149.094 39.1767 149.618 39.1579 150.131 39.2428C150.643 39.3278 151.134 39.5147 151.573 39.7926C152.01 40.0665 152.389 40.424 152.689 40.8445C152.988 41.265 153.201 41.7404 153.317 42.2435C153.432 42.7466 153.448 43.2675 153.362 43.7764C153.276 44.2854 153.091 44.7725 152.816 45.2098L137.163 71.7264L141.04 73.8771C152.425 80.9745 162.044 90.5714 169.167 101.94C178.067 115.789 183.814 131.426 186 147.742V147.748ZM127.875 113.024C127.874 114.041 128.074 115.048 128.462 115.988C128.85 116.927 129.42 117.781 130.139 118.501C130.857 119.22 131.71 119.791 132.649 120.181C133.588 120.571 134.595 120.772 135.611 120.772C136.628 120.773 137.635 120.574 138.575 120.185C139.514 119.797 140.368 119.227 141.088 118.509C141.807 117.79 142.378 116.937 142.768 115.998C143.158 115.059 143.359 114.053 143.359 113.036C143.36 112.019 143.16 111.012 142.771 110.073C142.383 109.133 141.813 108.28 141.094 107.56C140.375 106.841 139.522 106.271 138.583 105.881C137.644 105.492 136.637 105.291 135.62 105.291C134.603 105.29 133.597 105.49 132.657 105.879C131.718 106.268 130.864 106.838 130.145 107.556C129.426 108.275 128.855 109.128 128.465 110.067C128.076 111.007 127.875 112.013 127.875 113.03V113.024ZM42.6231 113.024C42.6215 115.078 43.4357 117.047 44.8866 118.501C46.3375 119.954 48.3061 120.771 50.3595 120.772C52.4129 120.774 54.3828 119.96 55.8358 118.509C57.2888 117.058 58.106 115.089 58.1076 113.036C58.1091 110.982 57.2949 109.013 55.844 107.56C54.3932 106.107 52.4245 105.289 50.3711 105.288C49.3544 105.287 48.3475 105.487 47.4079 105.875C46.4682 106.263 45.6143 106.833 44.8948 107.551C43.4418 109.002 42.6246 110.971 42.6231 113.024Z" fill="#3DDB86"/>
</svg>
